<?xml version="1.0" encoding="UTF-8" standalone="no"?>
<!-- Created with Inkscape (http://www.inkscape.org/) -->

<svg
   width="250mm"
   height="100mm"
   viewBox="0 0 250 100"
   version="1.1"
   id="SVGRoot"
   sodipodi:docname="logo-wesley_utsunomiya.svg"
   inkscape:version="1.1 (c68e22c387, 2021-05-23)"
   xmlns:inkscape="http://www.inkscape.org/namespaces/inkscape"
   xmlns:sodipodi="http://sodipodi.sourceforge.net/DTD/sodipodi-0.dtd"
   xmlns="http://www.w3.org/2000/svg"
   xmlns:svg="http://www.w3.org/2000/svg">
  <sodipodi:namedview
     id="namedview248"
     pagecolor="#505050"
     bordercolor="#eeeeee"
     borderopacity="1"
     inkscape:pageshadow="0"
     inkscape:pageopacity="0"
     inkscape:pagecheckerboard="0"
     inkscape:document-units="mm"
     showgrid="false"
     inkscape:zoom="0.92648709"
     inkscape:cx="415.00848"
     inkscape:cy="206.69473"
     inkscape:window-width="1360"
     inkscape:window-height="705"
     inkscape:window-x="-8"
     inkscape:window-y="-8"
     inkscape:window-maximized="1"
     inkscape:current-layer="layer2"
     width="250mm" />
  <defs
     id="defs243">
    <rect
       x="356.18414"
       y="461.96002"
       width="259.043"
       height="131.68019"
       id="rect1844" />
  </defs>
  <g
     inkscape:label="Camada 1"
     inkscape:groupmode="layer"
     id="layer1"
     style="display:inline">
    <text
       xml:space="preserve"
       transform="scale(0.26458333)"
       id="text1842"
       style="font-style:normal;font-weight:normal;font-size:40px;line-height:1.25;font-family:sans-serif;white-space:pre;shape-inside:url(#rect1844);fill:#000000;fill-opacity:1;stroke:none" />
    <circle
       id="path4479"
       style="fill:#000000;stroke:#000000;stroke-width:0.264583"
       cx="170.77499"
       cy="242.16922"
       r="0.076077133" />
    <circle
       id="path4481"
       style="fill:#000000;stroke:#000000;stroke-width:0.264583"
       cx="170.77499"
       cy="242.16922"
       r="0.076077133" />
    <circle
       id="path5217"
       style="fill:#000000;stroke:#000000;stroke-width:0.264583"
       cx="175.91537"
       cy="155.35384"
       r="0.076077133" />
    <text
       xml:space="preserve"
       style="font-weight:bold;font-size:10.5833px;line-height:1.25;font-family:sans-serif;-inkscape-font-specification:'sans-serif Bold';stroke-width:0.264583"
       x="-67.396149"
       y="162.77884"
       id="text20179"><tspan
         sodipodi:role="line"
         id="tspan20177"
         style="stroke-width:0.264583"
         x="-67.396149"
         y="162.77884"></tspan></text>
    <circle
       id="path30509"
       style="fill:#ececec;stroke:#000000;stroke-width:0.264583"
       cx="165.06345"
       cy="39.980766"
       r="0.076077133" />
    <circle
       id="path30511"
       style="fill:#ececec;stroke:#000000;stroke-width:0.264583"
       cx="165.06345"
       cy="39.980766"
       r="0.076077133" />
  </g>
  <g
     inkscape:groupmode="layer"
     id="layer2"
     inkscape:label="Camada 2">
    <path
       style="color:#000000;fill:#ececec;stroke-width:0.222319;-inkscape-stroke:none"
       d="m 15.493877,26.424392 c 0.647084,-0.28364 1.763308,-0.873844 2.464788,-0.683989 1.906513,0.515982 2.212639,2.498769 2.567985,4.509686 0.769528,4.354919 0.442832,7.972492 0.356101,12.437144 -0.297681,7.3426 -1.074356,14.747453 -0.385384,22.100046 0.301585,3.218591 0.737365,7.120234 2.911688,9.581367 0.768308,0.869608 1.921699,1.113787 2.882523,1.670674 1.128617,-0.184372 2.342604,-0.02106 3.385612,-0.552914 2.151715,-1.097051 4.152969,-2.598955 6.025264,-4.24506 1.387677,-1.219976 2.538153,-2.773352 3.685109,-4.291849 3.485429,-4.614813 6.226582,-9.873664 8.929452,-15.112229 -5.109808,1.788217 4.851097,-5.897162 2.968119,-5.623401 -0.838531,0.121922 -1.584762,1.030383 -1.905795,1.935174 -0.213093,0.600675 0.41064,1.210466 0.568517,1.833532 0.273772,1.079564 0.469437,2.183751 0.724932,3.269246 0.319157,1.355298 0.665981,2.701654 0.998824,4.052496 1.829187,5.838142 4.318508,11.982585 9.133806,15.310921 2.767353,1.912819 3.758331,1.649685 6.83724,2.025177 1.213066,-0.398218 2.514589,-0.534889 3.639297,-1.194697 5.509505,-3.232069 9.235572,-7.186508 11.970742,-13.562857 2.12274,-4.94872 2.21237,-7.043709 3.21652,-12.403046 0.42447,-6.417397 0.8208,-12.948311 -1.54364,-18.994935 -0.72462,-1.853072 -1.61242,-3.670817 -2.79912,-5.170985 -3.24442,-4.101122 -5.387831,-4.285124 -9.760746,-6.118734 -2.211379,-0.0755 -4.429808,-0.441766 -6.634347,-0.226095 -7.45873,0.729685 -14.446057,4.449534 -20.803187,8.781333 -7.398046,5.041127 -6.650032,4.670384 -12.253652,9.959043 -0.503901,0.768961 -4.162097,4.691504 -2.478349,6.90091 1.702708,2.234066 8.193513,2.542675 9.744363,2.642874 4.288078,0.277066 13.813907,0.0811 17.857915,0.03598 14.326336,0.09135 7.235827,-0.02202 21.271373,0.332278 0,0 1.72356,-1.442956 1.72356,-1.442956 v 0 c -14.032629,-0.324471 -6.965345,-0.190569 -21.201863,-0.399158 -4.675609,0.01492 -12.735303,0.152309 -17.570183,-0.232879 -1.12045,-0.0893 -7.742015,-0.573701 -9.259213,-2.461693 -1.642627,-2.044174 1.887824,-5.847367 2.30345,-6.489173 2.219507,-2.100025 5.418349,-5.322995 7.98775,-7.099692 6.289838,-4.349191 13.251025,-8.079928 20.655044,-8.835799 2.166439,-0.221173 4.348041,0.135531 6.521992,0.203291 4.30746,1.783373 6.428399,1.956612 9.628833,5.978728 1.17482,1.47644 2.05918,3.26514 2.77554,5.093064 2.34662,5.987468 1.96822,12.492637 1.50669,18.844679 -0.40841,2.121468 -0.67069,4.287821 -1.22514,6.364416 -1.09574,4.103825 -2.58991,7.665785 -4.8818,11.050444 -0.979259,1.446035 -2.19047,2.660098 -3.311414,3.960984 -0.400569,0.464868 -0.737937,1.055699 -1.251443,1.33459 -1.12327,0.610071 -2.370254,0.850766 -3.555315,1.276125 -3.017829,-0.298986 -4.046545,-0.02106 -6.779103,-1.848281 -3.533695,-2.363016 -5.919856,-6.512734 -7.580501,-10.699514 -0.571171,-1.440147 -0.964211,-2.96625 -1.446375,-4.449378 -0.311795,-1.359905 -0.64506,-2.713474 -0.935501,-4.079739 -0.236529,-1.113119 -0.390425,-2.249112 -0.64507,-3.356861 -0.169526,-0.737382 0.02421,-2.046376 -0.625899,-2.171407 -2.475834,-0.476091 -3.409486,1.368592 -4.305572,3.191074 -0.603906,1.228103 -1.149676,2.49325 -1.724534,3.739884 -2.667663,5.235099 -5.384159,10.466934 -8.908992,15.017078 -1.176694,1.519015 -2.497261,2.881235 -3.788513,4.269981 -0.392818,0.422496 -0.753761,0.951455 -1.259198,1.158887 -1.045329,0.429052 -2.181264,0.467195 -3.271959,0.700784 -0.94987,-0.492081 -2.079853,-0.665588 -2.849492,-1.476308 -2.233432,-2.352707 -2.701604,-6.139646 -3.029012,-9.328632 -0.753472,-7.338704 0.03898,-14.745866 0.383368,-22.073801 0.147844,-4.469084 0.522517,-8.283762 -0.164956,-12.679938 -0.346168,-2.213499 -0.619675,-4.273991 -2.630663,-5.002179 -0.704812,-0.255217 -1.799523,0.281385 -2.46192,0.542437 0,0 -2.398546,2.203846 -2.398546,2.203846 z"
       id="path30515" />
    <rect
       style="opacity:0.7;fill:#ffffff;stroke-width:0.264583"
       id="rect33259"
       width="0.85673076"
       height="65.111534"
       x="94.52597"
       y="15.706731" />
    <text
       xml:space="preserve"
       style="font-style:normal;font-variant:normal;font-weight:bold;font-stretch:normal;font-size:16.9333px;line-height:1.25;font-family:'Lucida Sans Unicode';-inkscape-font-specification:'Lucida Sans Unicode Bold';fill:#f2f2f2;stroke-width:0.264583"
       x="97.952881"
       y="53.117306"
       id="text47207"><tspan
         sodipodi:role="line"
         id="tspan47205"
         style="font-style:normal;font-variant:normal;font-weight:bold;font-stretch:normal;font-size:16.9333px;font-family:'Lucida Sans Unicode';-inkscape-font-specification:'Lucida Sans Unicode Bold';fill:#f2f2f2;stroke-width:0.264583"
         x="97.952881"
         y="53.117306">Profº Wesley Otto</tspan></text>
  </g>
</svg>
